<?xml version="1.0" standalone="no"?>
<!DOCTYPE svg PUBLIC "-//W3C//DTD SVG 20010904//EN"
 "http://www.w3.org/TR/2001/REC-SVG-20010904/DTD/svg10.dtd">
<svg version="1.0" xmlns="http://www.w3.org/2000/svg"
 width="260.000000pt" height="260.000000pt" viewBox="0 0 260.000000 260.000000"
 preserveAspectRatio="xMidYMid meet">
<metadata>
Created by potrace 1.14, written by Peter Selinger 2001-2017
</metadata>
<g transform="translate(0.000000,260.000000) scale(0.100000,-0.100000)"
fill="#000000" stroke="none">
<path d="M880 2020 c-52 -55 -94 -100 -92 -100 1 0 -10 -13 -24 -30 -15 -16
-31 -27 -37 -23 -6 3 -7 2 -4 -4 3 -5 -29 -46 -73 -91 -43 -45 -77 -82 -75
-82 2 0 -11 -15 -29 -33 -17 -18 -68 -71 -112 -119 -45 -48 -85 -84 -89 -80
-5 4 -5 2 -2 -4 3 -5 -25 -44 -64 -85 -38 -41 -69 -77 -69 -81 0 -9 50 -59 50
-50 0 4 4 2 8 -3 4 -6 41 -37 82 -70 110 -89 109 -88 104 -97 -3 -5 -2 -7 3
-6 16 5 54 -23 47 -35 -4 -7 -4 -9 1 -5 11 10 47 -11 40 -23 -4 -5 -1 -8 7 -7
7 2 12 -4 10 -12 -2 -8 0 -12 3 -8 4 4 16 3 27 -3 19 -10 19 -11 1 -25 -17
-14 -16 -14 5 -4 13 7 27 8 30 4 4 -4 1 -9 -5 -11 -7 -3 -13 -9 -13 -15 0 -6
6 -5 15 2 9 7 19 10 22 6 4 -4 1 -12 -7 -17 -11 -8 -10 -9 8 -4 21 6 58 -16
46 -28 -3 -2 7 -8 21 -11 22 -6 25 -9 14 -22 -10 -12 -9 -13 4 -9 18 7 137
-81 137 -101 0 -7 5 -16 12 -20 7 -4 8 -3 4 4 -10 17 1 15 24 -5 13 -12 16
-20 9 -29 -7 -8 -7 -14 1 -19 6 -4 9 -1 8 6 -2 6 3 14 11 17 10 3 12 0 8 -11
-4 -11 -2 -14 9 -10 7 3 14 0 14 -6 0 -6 5 -11 11 -11 10 0 35 -19 104 -79 11
-9 40 -33 65 -52 24 -18 51 -40 58 -47 8 -7 30 -25 50 -40 21 -15 43 -33 50
-39 7 -7 16 -13 19 -13 7 0 86 62 94 74 4 4 12 5 19 1 8 -5 11 -4 6 3 -7 12
48 55 58 44 4 -4 6 -2 4 3 -2 6 7 20 20 33 12 12 22 20 22 17 0 -2 14 9 31 26
23 23 34 27 44 19 10 -8 15 -8 21 1 4 7 3 9 -4 5 -6 -3 -13 -2 -16 3 -6 9 43
47 56 43 5 -1 7 2 5 6 -3 13 61 64 73 57 6 -4 7 1 3 12 -3 10 -3 15 1 12 3 -3
22 9 42 27 35 34 62 46 48 22 -5 -8 -1 -8 12 2 29 22 30 24 12 17 -10 -4 -18
-3 -18 2 0 11 52 46 63 43 5 -1 6 2 2 8 -3 5 5 15 19 21 14 7 23 16 20 20 -5
9 9 13 33 10 7 -1 10 5 7 13 -6 16 30 41 46 31 5 -3 12 0 16 6 4 8 3 9 -4 5
-7 -4 -12 -3 -12 2 0 12 63 57 75 54 5 -2 7 0 3 3 -4 4 7 19 24 34 17 14 46
41 64 59 19 18 34 31 34 28 0 -5 41 36 73 72 18 20 17 20 -42 57 -34 20 -61
41 -61 46 0 5 -4 8 -8 6 -11 -3 -282 174 -282 184 0 5 -6 8 -12 6 -8 -1 -12 6
-10 18 3 16 1 17 -9 8 -17 -17 -61 13 -57 40 2 15 -4 21 -22 24 -14 2 -26 8
-28 13 -2 6 -8 10 -13 10 -17 0 2 -21 27 -30 13 -5 24 -14 24 -20 0 -9 -46 14
-60 30 -3 3 -21 16 -42 28 -39 24 -54 48 -35 56 7 2 4 5 -7 5 -12 1 -16 -4
-12 -14 3 -8 1 -15 -4 -15 -6 0 -10 4 -10 8 0 5 -12 14 -26 20 -20 10 -24 17
-19 35 5 19 5 20 -5 4 -15 -23 -33 -11 -24 16 6 22 6 22 -9 2 -14 -18 -16 -18
-22 -3 -4 9 -4 21 -1 26 3 5 -2 9 -10 9 -8 0 -13 -6 -10 -14 4 -9 -1 -9 -19 3
-14 9 -22 20 -19 26 3 5 0 8 -7 6 -18 -4 -141 71 -134 82 3 5 0 12 -6 16 -8 4
-9 3 -5 -4 4 -7 2 -12 -3 -12 -6 0 -11 4 -11 9 0 5 -9 11 -20 14 -14 4 -18 11
-14 24 5 15 4 16 -6 3 -9 -11 -13 -12 -17 -2 -2 6 -11 12 -19 12 -8 0 -14 5
-14 10 0 6 -5 10 -10 10 -20 0 -119 73 -113 83 3 6 1 7 -6 3 -6 -4 -35 8 -65
28 -30 20 -58 36 -63 36 -4 0 -51 -45 -103 -100z"/>
<path d="M1385 1880 c-3 -5 -1 -10 4 -10 6 0 11 5 11 10 0 6 -2 10 -4 10 -3 0
-8 -4 -11 -10z"/>
<path d="M1415 1869 c-4 -6 -5 -12 -2 -15 2 -3 7 2 10 11 7 17 1 20 -8 4z"/>
<path d="M1440 1840 c18 -12 30 -13 30 -2 0 4 -10 9 -22 9 -18 2 -20 0 -8 -7z"/>
<path d="M1513 1805 c0 -8 4 -12 9 -9 5 3 6 10 3 15 -9 13 -12 11 -12 -6z"/>
<path d="M1625 1720 c-4 -6 1 -7 11 -3 12 4 15 3 10 -5 -5 -8 -2 -10 9 -5 13
5 14 7 3 14 -17 11 -26 11 -33 -1z"/>
<path d="M1713 1672 c-9 -5 -6 -12 10 -21 19 -13 21 -12 10 1 -7 8 -10 18 -6
21 9 9 1 8 -14 -1z"/>
<path d="M1749 1657 c6 -8 7 -18 3 -22 -4 -5 -1 -5 6 -1 10 6 10 11 1 22 -6 8
-14 14 -16 14 -3 0 0 -6 6 -13z"/>
<path d="M1880 1560 c-9 -6 -10 -10 -3 -10 6 0 15 5 18 10 8 12 4 12 -15 0z"/>
<path d="M1952 1511 c-11 -7 -11 -9 0 -14 9 -3 15 1 15 9 0 8 -1 14 -1 14 -1
0 -7 -4 -14 -9z"/>
<path d="M1995 1491 c-3 -5 -2 -12 3 -15 5 -3 9 1 9 9 0 17 -3 19 -12 6z"/>
<path d="M2120 1406 c0 -2 8 -10 18 -17 15 -13 16 -12 3 4 -13 16 -21 21 -21
13z"/>
<path d="M370 1121 c0 -6 4 -13 10 -16 6 -3 7 1 4 9 -7 18 -14 21 -14 7z"/>
<path d="M661 884 c0 -11 3 -14 6 -6 3 7 2 16 -1 19 -3 4 -6 -2 -5 -13z"/>
<path d="M750 796 c7 -7 13 -7 20 0 6 6 3 10 -10 10 -13 0 -16 -4 -10 -10z"/>
<path d="M815 760 c3 -5 8 -10 11 -10 2 0 4 5 4 10 0 6 -5 10 -11 10 -5 0 -7
-4 -4 -10z"/>
<path d="M1060 566 c0 -2 8 -10 18 -17 15 -13 16 -12 3 4 -13 16 -21 21 -21
13z"/>
</g>
</svg>
